<svg width="20" height="20" viewBox="0 0 20 20" fill="none" xmlns="http://www.w3.org/2000/svg">
<path d="M17.3317 17.28L14.7278 7.9057C14.7277 7.90562 14.7277 7.90555 14.7277 7.90548C14.7225 7.8871 14.7059 7.87483 14.6874 7.87483H11.0416H10.0416V6.87483V6.65409V6.00283L10.6373 5.73949C11.2069 5.48767 11.6041 4.91826 11.6041 4.27067C11.6041 3.38711 10.8835 2.6665 9.99997 2.6665C9.11643 2.6665 8.39582 3.38711 8.39582 4.27067C8.39582 4.91826 8.79308 5.48767 9.36266 5.73949L9.95831 6.00283V6.65409V6.87483V7.87483H8.95831H5.31249C5.29397 7.87483 5.27734 7.88717 5.27218 7.90564C5.27218 7.90566 5.27217 7.90568 5.27217 7.9057L2.66819 17.2801C2.66458 17.2931 2.6674 17.3066 2.67496 17.3166C2.683 17.3271 2.69529 17.3332 2.70834 17.3332H17.2916L17.3317 17.28ZM17.3317 17.28C17.3317 17.28 17.3318 17.2801 17.3318 17.2802C17.3353 17.2933 17.3325 17.3067 17.325 17.3166L17.3317 17.28ZM11.5208 4.2707C11.5208 3.43131 10.8394 2.74987 9.99997 2.74987C9.1605 2.74987 8.47914 3.43134 8.47914 4.2707C8.47914 5.11009 9.16058 5.79153 9.99997 5.79153C10.8394 5.79153 11.5208 5.11009 11.5208 4.2707Z" stroke="#103B66" stroke-width="2"/>
</svg>
