<svg width="52" height="52" viewBox="0 0 52 52" fill="none" xmlns="http://www.w3.org/2000/svg">
<g clip-path="url(#clip0_765_5880)">
<path d="M52 35.5992V9.9996C52.0003 8.68634 51.7419 7.38588 51.2395 6.17252C50.7371 4.95915 50.0006 3.85667 49.0719 2.92805C48.1433 1.99944 47.0408 1.26288 45.8275 0.760479C44.6141 0.258073 43.3137 -0.000341257 42.0004 3.38221e-07H9.9996C8.68634 -0.000341257 7.38588 0.258073 6.17252 0.760479C4.95915 1.26288 3.85667 1.99944 2.92805 2.92805C1.99944 3.85667 1.26288 4.95915 0.760479 6.17252C0.258073 7.38588 -0.000341257 8.68634 3.38221e-07 9.9996V42.0004C-0.000341257 43.3137 0.258073 44.6141 0.760479 45.8275C1.26288 47.0408 1.99944 48.1433 2.92805 49.0719C3.85667 50.0006 4.95915 50.7371 6.17252 51.2395C7.38588 51.7419 8.68634 52.0003 9.9996 52H42.0004C44.3466 51.9998 46.6182 51.1751 48.418 49.67C50.2178 48.1648 51.4314 46.075 51.8466 43.7658C49.1946 42.6244 37.7026 37.6636 31.7174 34.7958C27.1544 40.313 22.386 43.6254 15.1918 43.6254C7.9976 43.6254 3.198 39.1976 3.783 33.7714C4.16 30.2146 6.6014 24.3984 17.2016 25.3994C22.7864 25.922 25.3448 26.9698 29.9052 28.4726C31.0752 26.3146 32.0632 23.9356 32.8016 21.4006H12.6022V19.3986H22.594V15.8002H10.4V13.598H22.594V8.4136C22.594 8.4136 22.711 7.5946 23.6054 7.5946H28.6V13.598H41.6052V15.8002H28.6V19.3986H39.2028C38.291 23.1852 36.843 26.8221 34.9024 30.199C37.9756 31.317 51.9974 35.5992 51.9974 35.5992H52ZM14.3988 40.196C6.7938 40.196 5.6004 35.3964 6.0008 33.3918C6.4012 31.3898 8.606 28.795 12.8258 28.795C17.6878 28.795 22.0324 30.0352 27.248 32.5754C23.5898 37.3516 19.0736 40.1934 14.3988 40.1934V40.196Z" fill="#00A0E6"/>
</g>
<defs>
<clipPath id="clip0_765_5880">
<rect width="52" height="52" fill="white"/>
</clipPath>
</defs>
</svg>
