<svg width="118" height="26" viewBox="0 0 118 26" fill="none" xmlns="http://www.w3.org/2000/svg">
<path d="M0.5 9.49648H11.225H17.738V3.04199L0.5 9.49648Z" fill="#FFA26B"/>
<path d="M17.738 3.04199V25.857L25.889 0L17.738 3.04199Z" fill="#21B8F9"/>
<path d="M17.7383 9.49658H11.2253L17.7383 25.8376V9.49658Z" fill="#103B66"/>
<path d="M0.5 9.49658L12.902 13.6891L11.225 9.49658H0.5Z" fill="#F33451"/>
<path d="M40.0073 19.8316C39.9098 19.9291 39.7538 20.0461 39.5393 20.1826C39.3248 20.3191 39.0323 20.4751 38.6813 20.6116C38.3303 20.7481 37.9013 20.8846 37.3748 20.9821C36.8678 21.0796 36.2828 21.1381 35.6198 21.1381C34.3523 21.1381 33.2408 20.9236 32.3048 20.5336C31.3688 20.1241 30.6083 19.5586 30.0038 18.8176C29.3993 18.0766 28.9508 17.2186 28.6778 16.2241C28.3853 15.2296 28.2488 14.1181 28.2488 12.9286C28.2488 11.7391 28.4048 10.6276 28.7168 9.61358C29.0288 8.59958 29.4773 7.72208 30.1013 6.98108C30.7058 6.24008 31.4858 5.65508 32.4023 5.24558C33.3188 4.83608 34.4108 4.62158 35.6588 4.62158C36.2633 4.62158 36.8288 4.68008 37.3163 4.77758C37.8038 4.89458 38.2523 5.01158 38.6228 5.16758C38.9933 5.32358 39.3053 5.47958 39.5393 5.63558C39.7928 5.79158 39.9683 5.94758 40.0853 6.04508C40.2218 6.16208 40.3583 6.31808 40.4558 6.49358C40.5533 6.66908 40.6118 6.86408 40.6118 7.05908C40.6118 7.37108 40.4948 7.68307 40.2608 7.99507C40.0268 8.30707 39.7733 8.59957 39.4808 8.87257C39.2858 8.67757 39.0713 8.48257 38.8373 8.28757C38.6033 8.09257 38.3303 7.91708 38.0378 7.76108C37.7453 7.60508 37.4138 7.48808 37.0433 7.39058C36.6728 7.29308 36.2633 7.23458 35.7953 7.23458C34.9958 7.23458 34.3133 7.39058 33.7673 7.72208C33.2213 8.05358 32.7923 8.46307 32.4608 8.98957C32.1293 9.51607 31.8953 10.1011 31.7588 10.7641C31.6223 11.4271 31.5443 12.1096 31.5443 12.8116C31.5443 13.5526 31.6223 14.2546 31.7588 14.9371C31.8953 15.6196 32.1488 16.2046 32.4998 16.7311C32.8508 17.2576 33.2993 17.6671 33.8648 17.9791C34.4303 18.2911 35.1128 18.4471 35.9513 18.4471C36.3998 18.4471 36.7898 18.3886 37.1603 18.2911C37.5308 18.1741 37.8623 18.0376 38.1353 17.8816C38.4278 17.7256 38.6618 17.5501 38.8763 17.3941C39.0908 17.2186 39.2663 17.0626 39.4028 16.9456C39.5003 17.0626 39.5978 17.1991 39.7343 17.3551C39.8708 17.5111 39.9878 17.6866 40.0853 17.8426C40.2023 18.0181 40.2803 18.1936 40.3778 18.3691C40.4558 18.5446 40.4948 18.7006 40.4948 18.8371C40.4948 19.0516 40.4558 19.2076 40.3778 19.3636C40.2998 19.5001 40.1633 19.6561 40.0073 19.8316ZM52.1752 18.0181C52.1752 19.2661 52.3507 20.1826 52.7212 20.7481C52.4287 20.8651 52.1752 20.9431 51.9217 20.9821C51.6682 21.0211 51.4147 21.0601 51.1417 21.0601C50.5762 21.0601 50.1472 20.9431 49.8547 20.7286C49.5622 20.5141 49.3672 20.1826 49.2892 19.7731C48.9382 20.1436 48.4897 20.4556 47.9047 20.7091C47.3392 20.9626 46.6372 21.0796 45.8183 21.0796C45.3893 21.0796 44.9603 21.0211 44.5313 20.9041C44.1023 20.7871 43.7123 20.5921 43.3613 20.3191C43.0103 20.0461 42.7373 19.6951 42.5033 19.2466C42.2888 18.7981 42.1718 18.2521 42.1718 17.6086C42.1718 16.8091 42.3668 16.1461 42.7568 15.6391C43.1468 15.1321 43.6343 14.7421 44.2193 14.4496C44.8043 14.1571 45.4478 13.9621 46.1108 13.8451C46.7932 13.7281 47.4172 13.6696 47.9827 13.6306C48.1777 13.6111 48.3532 13.6111 48.5482 13.6111H49.0552V13.1821C49.0552 12.5776 48.8992 12.1486 48.5677 11.8756C48.2362 11.6221 47.7097 11.4856 46.9882 11.4856C46.3057 11.4856 45.7013 11.6026 45.1748 11.8171C44.6483 12.0316 44.1218 12.2851 43.6148 12.5776C43.4003 12.3046 43.2053 12.0121 43.0883 11.6806C42.9518 11.3491 42.8933 11.1151 42.8933 10.9591C42.8933 10.7446 43.0103 10.5301 43.2638 10.3156C43.5173 10.1011 43.8488 9.92557 44.2778 9.75007C44.7068 9.57457 45.1943 9.45758 45.7598 9.34058C46.3057 9.24308 46.8907 9.18457 47.5147 9.18457C48.3727 9.18457 49.0942 9.26258 49.6792 9.43808C50.2642 9.61358 50.7517 9.88657 51.1222 10.2376C51.4927 10.6081 51.7657 11.0566 51.9217 11.6026C52.0777 12.1486 52.1557 12.7921 52.1557 13.5136L52.1752 18.0181ZM49.1332 15.2686H48.8017C48.6847 15.2686 48.5872 15.2686 48.4702 15.2881C48.0802 15.3271 47.6902 15.3661 47.3002 15.4246C46.9102 15.4831 46.5592 15.6001 46.2668 15.7561C45.9743 15.9121 45.7208 16.1266 45.5258 16.3801C45.3308 16.6336 45.2333 16.9651 45.2333 17.3551C45.2333 17.8036 45.3503 18.1741 45.6038 18.4861C45.8573 18.7981 46.2862 18.9541 46.8907 18.9541C47.1832 18.9541 47.4757 18.9151 47.7488 18.8371C48.0217 18.7591 48.2557 18.6616 48.4702 18.5251C48.6847 18.3886 48.8407 18.2521 48.9577 18.1156C49.0747 17.9596 49.1332 17.8231 49.1332 17.7061V15.2686ZM58.0837 10.5886C58.3372 10.2961 58.7272 9.98407 59.2732 9.67207C59.8192 9.36007 60.4822 9.20407 61.3012 9.20407C61.8862 9.20407 62.4517 9.30157 62.9782 9.49657C63.5047 9.69157 63.9727 10.0231 64.3822 10.4521C64.7917 10.9006 65.1232 11.4856 65.3572 12.2071C65.6107 12.9286 65.7277 13.8256 65.7277 14.8981C65.7277 16.1266 65.5912 17.1601 65.2987 17.9596C65.0062 18.7591 64.6552 19.4026 64.2067 19.8511C63.7582 20.3191 63.2512 20.6506 62.7052 20.8456C62.1592 21.0406 61.5937 21.1381 61.0477 21.1381C60.5992 21.1381 60.1897 21.0796 59.8582 20.9821C59.5267 20.8846 59.2342 20.7676 59.0002 20.6311C58.7662 20.5141 58.5907 20.3776 58.4542 20.2606C58.3372 20.1436 58.2397 20.0461 58.2202 20.0071V25.857H54.9832V9.55507C55.0612 9.53557 55.1587 9.51608 55.2757 9.51608C55.3732 9.49658 55.4902 9.49657 55.6072 9.47707C55.7437 9.47707 55.8802 9.45757 56.0557 9.45757C56.5822 9.45757 57.0307 9.53558 57.4012 9.71108C57.7522 9.88657 57.9862 10.1791 58.0837 10.5886ZM62.3737 14.9761C62.3737 14.5081 62.3347 14.0596 62.2567 13.6501C62.1787 13.2406 62.0422 12.8896 61.8667 12.5776C61.6912 12.2851 61.4377 12.0511 61.1257 11.8756C60.8137 11.7001 60.4432 11.6221 59.9947 11.6221C59.3317 11.6221 58.8637 11.7586 58.6102 11.9926C58.3567 12.2461 58.2202 12.5191 58.2202 12.8311V17.8816C58.3372 18.0181 58.5712 18.1546 58.9027 18.3301C59.2342 18.5056 59.6047 18.5836 60.0337 18.5836C60.8332 18.5836 61.4182 18.2716 61.8082 17.6281C62.1787 17.0041 62.3737 16.1266 62.3737 14.9761ZM68.2237 19.0711C68.1067 18.7591 68.0482 18.4276 68.0092 18.0766C67.9702 17.7256 67.9702 17.3746 67.9702 17.0236V6.00608C68.0872 5.98658 68.2042 5.96708 68.3212 5.96708C68.4382 5.94758 68.5552 5.94758 68.6722 5.92808C68.7892 5.92808 68.9257 5.90858 69.0427 5.90858C69.2962 5.90858 69.5497 5.92808 69.8032 5.98658C70.0567 6.02558 70.2907 6.12308 70.4857 6.27908C70.7002 6.41558 70.8562 6.61058 70.9927 6.86408C71.1097 7.11758 71.1877 7.42958 71.1877 7.81958V9.51608H74.5222V11.9146H71.2072V16.9846C71.2072 18.0961 71.6557 18.6421 72.5527 18.6421C72.7672 18.6421 72.9817 18.6031 73.1767 18.5446C73.3717 18.4666 73.5472 18.3886 73.7032 18.3106C73.8592 18.2326 73.9957 18.1351 74.1127 18.0376C74.2297 17.9401 74.3077 17.8621 74.3662 17.8231C74.6002 18.1741 74.7952 18.4666 74.9122 18.7201C75.0292 18.9736 75.1072 19.2076 75.1072 19.4416C75.1072 19.6561 75.0292 19.8511 74.8537 20.0461C74.6782 20.2411 74.4442 20.4361 74.1517 20.5921C73.8592 20.7676 73.4887 20.9041 73.0597 21.0016C72.6307 21.0991 72.1627 21.1576 71.6557 21.1576C70.6807 21.1576 69.9007 20.9626 69.3547 20.5921C68.8477 20.1826 68.4577 19.6951 68.2237 19.0711ZM82.7122 18.7591C83.1022 18.7591 83.4532 18.7201 83.7652 18.6226C84.0577 18.5446 84.3307 18.4276 84.5842 18.3106C84.8182 18.1936 85.0327 18.0376 85.2082 17.9011C85.3837 17.7451 85.5397 17.6086 85.6762 17.4916C85.8712 17.7256 86.0662 18.0376 86.2807 18.4081C86.4952 18.7786 86.5927 19.0906 86.5927 19.3246C86.5927 19.6756 86.3977 19.9876 86.0077 20.2801C85.6762 20.5336 85.2082 20.7481 84.5842 20.9431C83.9797 21.1186 83.2582 21.2161 82.4392 21.2161C81.6982 21.2161 80.9572 21.1186 80.2357 20.9236C79.5142 20.7286 78.8707 20.3971 78.3052 19.9291C77.7397 19.4611 77.2912 18.8176 76.9402 18.0181C76.5892 17.2186 76.4137 16.2046 76.4137 14.9956C76.4137 14.0011 76.5697 13.1431 76.8817 12.4216C77.1937 11.7001 77.6032 11.0956 78.1102 10.6276C78.6172 10.1596 79.2022 9.80857 79.8652 9.57457C80.5087 9.36007 81.1717 9.24308 81.8542 9.24308C82.7317 9.24308 83.4922 9.37957 84.1162 9.65257C84.7402 9.92557 85.2277 10.2961 85.6177 10.7641C86.0077 11.2321 86.2807 11.7586 86.4562 12.3631C86.6317 12.9676 86.7097 13.5916 86.7097 14.2546V14.5861C86.7097 14.7226 86.7097 14.8396 86.6902 14.9956C86.6902 15.1321 86.6707 15.2686 86.6707 15.4051C86.6707 15.5416 86.6512 15.6391 86.6317 15.7171H79.6312C79.6897 16.5946 79.9627 17.3161 80.4502 17.9011C80.9182 18.4666 81.6787 18.7591 82.7122 18.7591ZM83.8042 13.9426C83.8042 13.1821 83.6482 12.5581 83.3557 12.0901C83.0632 11.6221 82.5367 11.3686 81.7762 11.3686C81.1132 11.3686 80.6062 11.6026 80.2162 12.0511C79.8262 12.4996 79.6312 13.1236 79.6312 13.9426H83.8042ZM92.3452 10.6471C92.4427 10.5106 92.5597 10.3546 92.7157 10.1791C92.8717 10.0036 93.0667 9.84758 93.3007 9.71108C93.5347 9.57458 93.7882 9.45757 94.0612 9.36007C94.3342 9.26257 94.6267 9.22358 94.9582 9.22358C95.1532 9.22358 95.3482 9.24307 95.5627 9.26257C95.7772 9.30157 95.9722 9.36008 96.1477 9.43808C96.3232 9.51608 96.4792 9.63307 96.5962 9.78907C96.7132 9.94507 96.7717 10.1206 96.7717 10.3351C96.7717 10.6861 96.6937 11.0761 96.5182 11.5246C96.3427 11.9731 96.1672 12.3631 95.9917 12.6751C95.7187 12.4606 95.4457 12.2851 95.1922 12.1681C94.9192 12.0511 94.6072 11.9926 94.2367 11.9926C93.7492 11.9926 93.3397 12.1291 93.0082 12.4216C92.6767 12.7141 92.5012 13.0456 92.5012 13.4551V21.1381H89.2642V9.53558C89.3422 9.51608 89.4397 9.49657 89.5567 9.49657C89.6542 9.47707 89.7712 9.47707 89.8882 9.45757C90.0052 9.45757 90.1612 9.43808 90.3367 9.43808C90.8437 9.43808 91.2922 9.53558 91.6627 9.73058C92.0137 9.94508 92.2477 10.2376 92.3452 10.6471ZM101.53 10.6471C101.627 10.5106 101.744 10.3546 101.9 10.1791C102.056 10.0036 102.251 9.84758 102.485 9.71108C102.719 9.57458 102.973 9.45757 103.246 9.36007C103.519 9.26257 103.811 9.22358 104.143 9.22358C104.338 9.22358 104.533 9.24307 104.747 9.26257C104.962 9.30157 105.157 9.36008 105.332 9.43808C105.508 9.51608 105.664 9.63307 105.781 9.78907C105.898 9.94507 105.956 10.1206 105.956 10.3351C105.956 10.6861 105.878 11.0761 105.703 11.5246C105.527 11.9731 105.352 12.3631 105.176 12.6751C104.903 12.4606 104.63 12.2851 104.377 12.1681C104.104 12.0511 103.792 11.9926 103.421 11.9926C102.934 11.9926 102.524 12.1291 102.193 12.4216C101.861 12.7141 101.686 13.0456 101.686 13.4551V21.1381H98.4487V9.53558C98.5267 9.51608 98.6242 9.49657 98.7412 9.49657C98.8387 9.47707 98.9557 9.47707 99.0727 9.45757C99.1897 9.45757 99.3457 9.43808 99.5212 9.43808C100.028 9.43808 100.477 9.53558 100.847 9.73058C101.198 9.94508 101.432 10.2376 101.53 10.6471ZM116.954 18.0181C116.954 19.2661 117.13 20.1826 117.5 20.7481C117.208 20.8651 116.954 20.9431 116.701 20.9821C116.447 21.0211 116.194 21.0601 115.921 21.0601C115.355 21.0601 114.926 20.9431 114.634 20.7286C114.341 20.5141 114.146 20.1826 114.068 19.7731C113.717 20.1436 113.269 20.4556 112.684 20.7091C112.118 20.9626 111.416 21.0796 110.597 21.0796C110.168 21.0796 109.739 21.0211 109.31 20.9041C108.881 20.7871 108.491 20.5921 108.14 20.3191C107.789 20.0461 107.516 19.6951 107.282 19.2466C107.068 18.7981 106.951 18.2521 106.951 17.6086C106.951 16.8091 107.146 16.1461 107.536 15.6391C107.926 15.1321 108.413 14.7421 108.998 14.4496C109.583 14.1571 110.227 13.9621 110.89 13.8451C111.572 13.7281 112.196 13.6696 112.762 13.6306C112.957 13.6111 113.132 13.6111 113.327 13.6111H113.834V13.1821C113.834 12.5776 113.678 12.1486 113.347 11.8756C113.015 11.6221 112.489 11.4856 111.767 11.4856C111.085 11.4856 110.48 11.6026 109.954 11.8171C109.427 12.0316 108.901 12.2851 108.394 12.5776C108.179 12.3046 107.984 12.0121 107.867 11.6806C107.731 11.3491 107.672 11.1151 107.672 10.9591C107.672 10.7446 107.789 10.5301 108.043 10.3156C108.296 10.1011 108.628 9.92557 109.057 9.75007C109.486 9.57457 109.973 9.45758 110.539 9.34058C111.085 9.24308 111.67 9.18457 112.294 9.18457C113.152 9.18457 113.873 9.26258 114.458 9.43808C115.043 9.61358 115.531 9.88657 115.901 10.2376C116.272 10.6081 116.545 11.0566 116.701 11.6026C116.857 12.1486 116.935 12.7921 116.935 13.5136L116.954 18.0181ZM113.912 15.2686H113.581C113.464 15.2686 113.366 15.2686 113.249 15.2881C112.859 15.3271 112.469 15.3661 112.079 15.4246C111.689 15.4831 111.338 15.6001 111.046 15.7561C110.753 15.9121 110.5 16.1266 110.305 16.3801C110.11 16.6336 110.012 16.9651 110.012 17.3551C110.012 17.8036 110.129 18.1741 110.383 18.4861C110.636 18.7981 111.065 18.9541 111.67 18.9541C111.962 18.9541 112.255 18.9151 112.528 18.8371C112.801 18.7591 113.035 18.6616 113.249 18.5251C113.464 18.3886 113.62 18.2521 113.737 18.1156C113.854 17.9596 113.912 17.8231 113.912 17.7061V15.2686Z" fill="white"/>
</svg>
