<svg width="62" height="34" viewBox="0 0 62 34" fill="none" xmlns="http://www.w3.org/2000/svg">
<g clip-path="url(#clip0_765_5756)">
<path d="M60.0617 33.3147H1.93747C0.867383 33.3147 0 32.4526 0 31.3889V2.37378C0 1.31015 0.867383 0.447998 1.93747 0.447998H60.0617C61.1318 0.447998 61.9992 1.31015 61.9992 2.37378V31.3889C61.9992 32.4526 61.1318 33.3147 60.0617 33.3147Z" fill="#89C247"/>
<path d="M10.3979 5.42204C9.99573 8.15075 7.73167 10.3865 5.0037 10.7846C4.50093 10.858 4.13232 11.2935 4.13232 11.7985V21.9651C4.13232 22.4701 4.50105 22.9056 5.0037 22.979C7.73167 23.3772 9.99573 25.6128 10.3979 28.3416C10.4715 28.841 10.9101 29.2069 11.4178 29.2069H50.5793C51.087 29.2069 51.5257 28.8411 51.5992 28.3416C52.0014 25.6129 54.2654 23.3772 56.9934 22.979C57.4962 22.9056 57.8648 22.4701 57.8648 21.9651V11.7985C57.8648 11.2935 57.496 10.858 56.9934 10.7846C54.2654 10.3865 52.0014 8.15087 51.5992 5.42204C51.5256 4.92266 51.087 4.55688 50.5793 4.55688H11.4178C10.9101 4.55688 10.4715 4.92266 10.3979 5.42204Z" fill="#B0D16F"/>
<path d="M5.16659 6.51339H4.13331C3.61649 6.51339 3.19775 6.09706 3.19775 5.58348C3.19775 5.06977 3.61661 4.65356 4.13331 4.65356H5.16659C5.68341 4.65356 6.10215 5.0699 6.10215 5.58348C6.10215 6.09706 5.68341 6.51339 5.16659 6.51339Z" fill="#67B83E"/>
<path d="M57.8652 6.51339H56.8319C56.3151 6.51339 55.8964 6.09706 55.8964 5.58348C55.8964 5.06977 56.3152 4.65356 56.8319 4.65356H57.8652C58.382 4.65356 58.8008 5.0699 58.8008 5.58348C58.8008 6.09706 58.382 6.51339 57.8652 6.51339Z" fill="#67B83E"/>
<path d="M57.8652 29.1086H56.8319C56.3151 29.1086 55.8964 28.6923 55.8964 28.1787C55.8964 27.6651 56.3152 27.2488 56.8319 27.2488H57.8652C58.382 27.2488 58.8008 27.6651 58.8008 28.1787C58.8008 28.6923 58.382 29.1086 57.8652 29.1086Z" fill="#67B83E"/>
<path d="M5.16659 29.1086H4.13331C3.61649 29.1086 3.19775 28.6923 3.19775 28.1787C3.19775 27.6651 3.61661 27.2488 4.13331 27.2488H5.16659C5.68341 27.2488 6.10215 27.6651 6.10215 28.1787C6.10215 28.6923 5.68341 29.1086 5.16659 29.1086Z" fill="#67B83E"/>
<path d="M60.004 0.447998H57.1349C58.2372 0.447998 59.1309 1.33626 59.1309 2.43191V31.3308C59.1309 32.4264 58.2372 33.3147 57.1349 33.3147H60.004C61.1064 33.3147 62 32.4264 62 31.3308V2.43191C62 1.33626 61.1064 0.447998 60.004 0.447998Z" fill="#67B83E"/>
<path d="M30.9997 25.098C35.5653 25.098 39.2663 21.4192 39.2663 16.8813C39.2663 12.3433 35.5653 8.66455 30.9997 8.66455C26.4342 8.66455 22.7332 12.3433 22.7332 16.8813C22.7332 21.4192 26.4342 25.098 30.9997 25.098Z" fill="#89C247"/>
<path d="M16.4767 17.3627C16.7392 16.2588 16.0517 15.1524 14.9412 14.8915C13.8306 14.6305 12.7175 15.3139 12.455 16.4178C12.1924 17.5216 12.8799 18.628 13.9905 18.889C15.1011 19.1499 16.2142 18.4666 16.4767 17.3627Z" fill="#89C247"/>
<path d="M48.9873 18.3359C49.7943 17.5338 49.7943 16.2333 48.9873 15.4312C48.1803 14.6291 46.872 14.6291 46.065 15.4312C45.2581 16.2333 45.2581 17.5338 46.065 18.3359C46.872 19.138 48.1803 19.138 48.9873 18.3359Z" fill="#89C247"/>
<path d="M30.9999 8.66455C30.5103 8.66455 30.0315 8.70932 29.5653 8.79045C33.4465 9.46592 36.3972 12.8299 36.3972 16.8813C36.3972 20.9326 33.4465 24.2966 29.5653 24.9721C30.0315 25.0532 30.5103 25.098 30.9999 25.098C35.5654 25.098 39.2665 21.4192 39.2665 16.8813C39.2665 12.3433 35.5654 8.66455 30.9999 8.66455Z" fill="#67B83E"/>
<path d="M47.5325 14.8276C46.9748 14.8276 46.4697 15.0483 46.0979 15.4051C46.4871 15.7787 46.73 16.3017 46.73 16.8818C46.73 17.462 46.4871 17.985 46.0979 18.3586C46.4697 18.7154 46.9748 18.936 47.5325 18.936C48.6739 18.936 49.5992 18.0164 49.5992 16.8818C49.5992 15.7473 48.6739 14.8276 47.5325 14.8276Z" fill="#67B83E"/>
<path d="M14.467 14.8276C13.9094 14.8276 13.4042 15.0483 13.0325 15.4051C13.4215 15.7787 13.6646 16.3017 13.6646 16.8818C13.6646 17.462 13.4217 17.985 13.0325 18.3586C13.4042 18.7154 13.9094 18.936 14.467 18.936C15.6085 18.936 16.5337 18.0164 16.5337 16.8818C16.5336 15.7473 15.6083 14.8276 14.467 14.8276Z" fill="#67B83E"/>
</g>
<defs>
<clipPath id="clip0_765_5756">
<rect width="62" height="34" fill="white"/>
</clipPath>
</defs>
</svg>
