<svg width="20" height="20" viewBox="0 0 20 20" fill="currentColor" xmlns="http://www.w3.org/2000/svg">
<path d="M9.99996 1.66675C5.40517 1.66675 1.66663 5.40529 1.66663 10.0001C1.66663 14.5949 5.40517 18.3334 9.99996 18.3334C14.5948 18.3334 18.3333 14.5949 18.3333 10.0001C18.3333 5.40529 14.5948 1.66675 9.99996 1.66675ZM9.99996 17.2917C5.97913 17.2917 2.70829 14.0209 2.70829 10.0001C2.70829 5.97925 5.97913 2.70841 9.99996 2.70841C14.0208 2.70841 17.2916 5.97925 17.2916 10.0001C17.2916 14.0209 14.0208 17.2917 9.99996 17.2917Z" fill="currentColor"/>
<path d="M11.7896 12.726C11.4021 12.9905 10.975 13.1249 10.5209 13.1249C9.56149 13.1249 8.73024 12.4916 8.2792 11.5624H10C10.2875 11.5624 10.5209 11.3291 10.5209 11.0416C10.5209 10.7541 10.2875 10.5208 10 10.5208H7.96045C7.9365 10.351 7.9167 10.178 7.9167 9.99992C7.9167 9.82179 7.9365 9.64888 7.96045 9.47909H10.5209C10.8084 9.47909 11.0417 9.24575 11.0417 8.95825C11.0417 8.67075 10.8084 8.43742 10.5209 8.43742H8.2792C8.73024 7.50825 9.56149 6.87492 10.5209 6.87492C10.975 6.87492 11.4021 7.00929 11.7896 7.27388C12.0271 7.43534 12.3521 7.37596 12.5136 7.13742C12.6761 6.89992 12.6146 6.57596 12.3771 6.41346C11.8209 6.03429 11.1792 5.83325 10.5209 5.83325C8.99483 5.83325 7.68858 6.91346 7.14587 8.43742H6.35421C6.06671 8.43742 5.83337 8.67075 5.83337 8.95825C5.83337 9.24575 6.06671 9.47909 6.35421 9.47909H6.92087C6.90212 9.652 6.87504 9.82179 6.87504 9.99992C6.87504 10.178 6.90212 10.3478 6.92087 10.5208H6.35421C6.06671 10.5208 5.83337 10.7541 5.83337 11.0416C5.83337 11.3291 6.06671 11.5624 6.35421 11.5624H7.14587C7.68858 13.0864 8.99483 14.1666 10.5209 14.1666C11.1792 14.1666 11.8209 13.9655 12.3771 13.5864C12.6146 13.4239 12.6761 13.0999 12.5136 12.8624C12.3521 12.6249 12.0271 12.5645 11.7896 12.726Z" fill="currentColor"/>
</svg>
