<svg width="20" height="20" viewBox="0 0 20 20" fill="none" xmlns="http://www.w3.org/2000/svg">
<path fill-rule="evenodd" clip-rule="evenodd" d="M9.4884 1.00885C9.78933 0.7748 10.2107 0.7748 10.5116 1.00885L18.0116 6.84219C18.2146 7.00007 18.3334 7.24282 18.3334 7.49998V16.6666C18.3334 17.3297 18.07 17.9656 17.6011 18.4344C17.1323 18.9033 16.4964 19.1666 15.8334 19.1666H4.16669C3.50365 19.1666 2.86776 18.9033 2.39892 18.4344C1.93008 17.9656 1.66669 17.3297 1.66669 16.6666V7.49998C1.66669 7.24282 1.78541 7.00007 1.9884 6.84219L9.4884 1.00885ZM8.33335 17.5H11.6667V10.8333H8.33335V17.5ZM13.3334 17.5V9.99998C13.3334 9.53974 12.9603 9.16665 12.5 9.16665H7.50002C7.03978 9.16665 6.66669 9.53974 6.66669 9.99998V17.5H4.16669C3.94567 17.5 3.73371 17.4122 3.57743 17.2559C3.42115 17.0996 3.33335 16.8877 3.33335 16.6666V7.90755L10 2.72236L16.6667 7.90755V16.6666C16.6667 16.8877 16.5789 17.0996 16.4226 17.2559C16.2663 17.4122 16.0544 17.5 15.8334 17.5H13.3334Z" fill="#103B66"/>
</svg>