<svg width="28" height="29" viewBox="0 0 28 29" fill="none" xmlns="http://www.w3.org/2000/svg">
<path d="M25.1644 14.4375C25.1644 19.8076 21.3736 24.293 16.3212 25.3605V18.308H18.5372H18.9664L19.0314 17.8837L19.5483 14.5109L19.6365 13.9351H19.054H16.3212V12.2476C16.3212 11.859 16.4174 11.536 16.6068 11.3166C16.7845 11.1108 17.1063 10.9241 17.7205 10.9241H19.1952H19.6952V10.4241V7.55531V7.1332L19.2791 7.06239L19.1952 7.55531L19.279 7.06238L19.2789 7.06236L19.2785 7.0623L19.2775 7.06212L19.274 7.06153L19.2612 7.05941L19.2139 7.05176C19.173 7.04524 19.1138 7.03604 19.039 7.02506C18.8895 7.00311 18.6772 6.97397 18.4244 6.94484C17.9208 6.88684 17.2466 6.82781 16.5819 6.82781C15.1492 6.82781 13.9091 7.26364 13.0267 8.14692C12.1437 9.03071 11.6765 10.3046 11.6765 11.8673V13.9375H9.21321H8.71321V14.4375V17.8103V18.3103H9.21321H11.6765V25.3624C6.62385 24.2907 2.83337 19.8062 2.83337 14.4375C2.83337 8.27128 7.83268 3.27197 13.9989 3.27197C20.1651 3.27197 25.1644 8.27128 25.1644 14.4375Z" fill="#1976D2" stroke="#1976D2"/>
</svg>
