<svg width="28" height="29" viewBox="0 0 28 29" fill="none" xmlns="http://www.w3.org/2000/svg">
<path d="M25.4398 12.1537H24.5V12.1053H14V16.772H20.5935C19.6315 19.4886 17.0468 21.4386 14 21.4386C10.1343 21.4386 7.00004 18.3044 7.00004 14.4386C7.00004 10.5729 10.1343 7.43864 14 7.43864C15.7845 7.43864 17.4079 8.11181 18.644 9.21139L21.9439 5.91147C19.8602 3.96956 17.073 2.77197 14 2.77197C7.55712 2.77197 2.33337 7.99572 2.33337 14.4386C2.33337 20.8816 7.55712 26.1053 14 26.1053C20.443 26.1053 25.6667 20.8816 25.6667 14.4386C25.6667 13.6564 25.5862 12.8928 25.4398 12.1537Z" fill="#FFC107"/>
<path d="M3.67871 9.00839L7.51179 11.8195C8.54896 9.25164 11.0608 7.43864 14.0002 7.43864C15.7846 7.43864 17.408 8.11181 18.6441 9.21139L21.944 5.91147C19.8604 3.96956 17.0732 2.77197 14.0002 2.77197C9.51904 2.77197 5.63288 5.30189 3.67871 9.00839Z" fill="#FF3D00"/>
<path d="M13.9998 26.1053C17.0133 26.1053 19.7514 24.952 21.8217 23.0766L18.2109 20.0211C17.0002 20.9419 15.5208 21.4398 13.9998 21.4386C10.9653 21.4386 8.38869 19.5037 7.41803 16.8035L3.61353 19.7347C5.54436 23.513 9.46553 26.1053 13.9998 26.1053Z" fill="#4CAF50"/>
<path d="M25.4397 12.1539H24.5V12.1055H14V16.7721H20.5934C20.1333 18.065 19.3045 19.1948 18.2093 20.0219L18.2111 20.0207L21.8219 23.0762C21.5664 23.3084 25.6667 20.2721 25.6667 14.4388C25.6667 13.6566 25.5862 12.893 25.4397 12.1539Z" fill="#1976D2"/>
</svg>
