<svg width="28" height="29" viewBox="0 0 28 29" fill="none" xmlns="http://www.w3.org/2000/svg">
<path d="M3.5 21.4387V14.4387C3.5 11.6539 4.60625 8.98323 6.57538 7.0141C8.54451 5.04497 11.2152 3.93872 14 3.93872C16.7848 3.93872 19.4555 5.04497 21.4246 7.0141C23.3938 8.98323 24.5 11.6539 24.5 14.4387V21.4387" stroke="#103B66" stroke-width="2" stroke-linecap="round" stroke-linejoin="round"/>
<path d="M24.5 22.6053C24.5 23.2241 24.2542 23.8176 23.8166 24.2552C23.379 24.6928 22.7855 24.9386 22.1667 24.9386H21C20.3812 24.9386 19.7877 24.6928 19.3501 24.2552C18.9125 23.8176 18.6667 23.2241 18.6667 22.6053V19.1053C18.6667 18.4865 18.9125 17.893 19.3501 17.4554C19.7877 17.0178 20.3812 16.772 21 16.772H24.5V22.6053ZM3.5 22.6053C3.5 23.2241 3.74583 23.8176 4.18342 24.2552C4.621 24.6928 5.21449 24.9386 5.83333 24.9386H7C7.61884 24.9386 8.21233 24.6928 8.64992 24.2552C9.0875 23.8176 9.33333 23.2241 9.33333 22.6053V19.1053C9.33333 18.4865 9.0875 17.893 8.64992 17.4554C8.21233 17.0178 7.61884 16.772 7 16.772H3.5V22.6053Z" stroke="#103B66" stroke-width="2" stroke-linecap="round" stroke-linejoin="round"/>
</svg>
