<svg width="44" height="51" viewBox="0 0 44 51" fill="none" xmlns="http://www.w3.org/2000/svg">
<g clip-path="url(#clip0_765_5915)">
<path d="M37.3255 3.96938C34.9306 1.28732 30.6014 0.137451 25.0631 0.137451H8.98931C8.44134 0.137471 7.91136 0.329552 7.49464 0.679161C7.07792 1.02877 6.8018 1.51297 6.71592 2.04472L0.0231053 43.7511C-0.109926 44.5735 0.538215 45.3182 1.38659 45.3182H11.31L13.8022 29.7867L13.7248 30.2731C13.9024 29.1752 14.858 28.3654 15.9896 28.3654H20.7052C29.9689 28.3654 37.2225 24.6685 39.3414 13.9738C39.4043 13.6575 39.4588 13.3497 39.5059 13.0489C39.2384 12.9097 39.2384 12.9097 39.5059 13.0489C40.1368 9.09606 39.5016 6.40539 37.3255 3.96938Z" fill="#27346A"/>
<path d="M17.5992 11.6249C17.8705 11.498 18.1672 11.4323 18.4677 11.4324H31.0692C32.5615 11.4324 33.9533 11.5278 35.2252 11.729C35.5811 11.7847 35.9351 11.8513 36.2868 11.9286C36.7853 12.0367 37.2781 12.1689 37.7632 12.3249C38.3885 12.5301 38.9708 12.7691 39.5061 13.0489C40.1368 9.09454 39.5016 6.40538 37.3255 3.96937C34.9292 1.28732 30.6014 0.137451 25.0631 0.137451H8.98793C7.85614 0.137451 6.89329 0.947034 6.71592 2.04472L0.0231062 43.7495C-0.109925 44.5733 0.538216 45.317 1.38522 45.317H11.31L16.4805 13.1009C16.5313 12.7842 16.6597 12.4845 16.8546 12.2274C17.0495 11.9703 17.305 11.7635 17.5992 11.6249Z" fill="#27346A"/>
<path d="M39.3422 13.9738C37.2233 24.6669 29.9698 28.3654 20.7059 28.3654H15.989C14.8574 28.3654 13.9016 29.1751 13.7258 30.273L10.6253 49.5846C10.5095 50.3043 11.076 50.9565 11.8171 50.9565H20.1822C20.6614 50.9564 21.1248 50.7883 21.4891 50.4825C21.8535 50.1766 22.0947 49.7531 22.1696 49.2881L22.2511 48.8692L23.8277 39.0516L23.9293 38.509C24.0042 38.044 24.2454 37.6205 24.6097 37.3146C24.974 37.0088 25.4374 36.8407 25.9165 36.8405H27.1684C35.2718 36.8405 41.6169 33.6059 43.4711 24.2509C44.2451 20.3415 43.8446 17.0775 41.7972 14.7849C41.1763 14.0904 40.4051 13.5169 39.5067 13.0488C39.458 13.3511 39.4053 13.6575 39.3422 13.9738Z" fill="#2790C3"/>
<path d="M37.2885 12.1803C36.9581 12.0855 36.6246 12.0016 36.2885 11.9287C35.9366 11.8527 35.5826 11.7866 35.2269 11.7304C33.9536 11.528 32.5628 11.4324 31.0692 11.4324H18.4692C18.1685 11.4317 17.8716 11.4981 17.6007 11.6264C17.3062 11.7646 17.0504 11.9712 16.8554 12.2284C16.6604 12.4855 16.5322 12.7855 16.4818 13.1024L13.8037 29.7868L13.7263 30.2732C13.9025 29.1753 14.8581 28.3656 15.9899 28.3656H20.7069C29.9706 28.3656 37.224 24.6686 39.3429 13.9739C39.406 13.6576 39.4589 13.3511 39.5076 13.049C38.971 12.7707 38.3902 12.5302 37.7648 12.3264C37.6069 12.275 37.4482 12.2263 37.2887 12.1803" fill="#1F264F"/>
</g>
<defs>
<clipPath id="clip0_765_5915">
<rect width="44" height="51" fill="white"/>
</clipPath>
</defs>
</svg>
