<svg width="98" height="41" viewBox="0 0 98 41" fill="none" xmlns="http://www.w3.org/2000/svg">
<g clip-path="url(#clip0_765_5895)">
<path d="M6.88718 15.9946C6.88718 14.932 7.75827 14.5232 9.20128 14.5232C11.27 14.5232 13.8833 15.1501 15.9522 16.2672V9.86376C13.6928 8.96463 11.4606 8.61038 9.20128 8.61038C3.675 8.61038 0 11.4988 0 16.3218C0 23.8421 10.3444 22.6433 10.3444 25.8859C10.3444 27.1391 9.25564 27.548 7.73109 27.548C5.47173 27.548 2.58609 26.6215 0.299359 25.3681V31.8532C2.83109 32.9431 5.39 33.4062 7.73109 33.4062C13.3933 33.4062 17.2861 30.5998 17.2861 25.7223C17.2589 17.6024 6.88718 19.0464 6.88718 15.9946ZM25.2894 3.16083L18.6472 4.57763L18.62 26.4034C18.62 30.4364 21.6417 33.4062 25.6706 33.4062C27.9028 33.4062 29.5361 32.9975 30.4344 32.5071V26.9757C29.5635 27.33 25.2622 28.5833 25.2622 24.5506V14.8774H30.4344V9.07365H25.2622L25.2894 3.16083ZM38.9006 11.0899L38.465 9.07365H32.585V32.9157H39.3906V16.7577C40.9965 14.6596 43.7189 15.0411 44.5628 15.3407V9.07365C43.6917 8.7466 40.5067 8.14712 38.9006 11.0899ZM46.2233 9.07365H53.0561V32.9157H46.2233V9.07365ZM46.2233 7.00276L53.0561 5.53136V0L46.2233 1.4442V7.00257V7.00276ZM67.2661 8.61038C64.5983 8.61038 62.8833 9.86376 61.9306 10.7359L61.5765 9.04644H55.5878V40.8176L62.3933 39.3736L62.4206 31.6623C63.4006 32.3708 64.8433 33.379 67.2389 33.379C72.1117 33.379 76.5489 29.4552 76.5489 20.8177C76.5217 12.9156 72.03 8.61038 67.2661 8.61038ZM65.6328 27.3844C64.0267 27.3844 63.0737 26.8123 62.4206 26.1038L62.3933 15.9946C63.1011 15.2045 64.0811 14.6596 65.6328 14.6596C68.11 14.6596 69.825 17.4388 69.825 21.0083C69.825 24.6596 68.1372 27.3844 65.6328 27.3844ZM98 21.0901C98 14.1145 94.6244 8.61038 88.1728 8.61038C81.6937 8.61038 77.7737 14.1147 77.7737 21.0357C77.7737 29.2372 82.4017 33.379 89.0437 33.379C92.2833 33.379 94.7333 32.6433 96.5844 31.6079V26.1582C94.7335 27.0847 92.61 27.657 89.915 27.657C87.2744 27.657 84.9333 26.7305 84.6339 23.5152H97.9456C97.9456 23.1608 98 21.744 98 21.0901ZM84.5522 18.5015C84.5522 15.4225 86.4306 14.1417 88.1456 14.1417C89.8061 14.1417 91.5756 15.4225 91.5756 18.5015H84.5522Z" fill="#6772E5"/>
</g>
<defs>
<clipPath id="clip0_765_5895">
<rect width="98" height="41" fill="white"/>
</clipPath>
</defs>
</svg>
