<svg width="25" height="24" viewBox="0 0 25 24" fill="none" xmlns="http://www.w3.org/2000/svg">
<path d="M15.2 6.29998C15.0168 6.48691 14.9141 6.73823 14.9141 6.99998C14.9141 7.26173 15.0168 7.51305 15.2 7.69998L16.8 9.29998C16.9869 9.48321 17.2382 9.58584 17.5 9.58584C17.7618 9.58584 18.0131 9.48321 18.2 9.29998L21.97 5.52998C22.4728 6.64117 22.6251 7.87921 22.4065 9.07913C22.1878 10.279 21.6087 11.3838 20.7463 12.2463C19.8838 13.1087 18.7791 13.6878 17.5791 13.9064C16.3792 14.1251 15.1412 13.9728 14.03 13.47L7.12 20.38C6.72218 20.7778 6.18261 21.0013 5.62 21.0013C5.05739 21.0013 4.51783 20.7778 4.12 20.38C3.72218 19.9822 3.49868 19.4426 3.49868 18.88C3.49868 18.3174 3.72218 17.7778 4.12 17.38L11.03 10.47C10.5272 9.35879 10.3749 8.12075 10.5935 6.92083C10.8122 5.72092 11.3913 4.61614 12.2537 3.7537C13.1162 2.89127 14.2209 2.31215 15.4209 2.09352C16.6208 1.8749 17.8588 2.02714 18.97 2.52998L15.21 6.28998L15.2 6.29998Z" stroke="#103B66" stroke-width="2" stroke-linecap="round" stroke-linejoin="round"/>
</svg>
