<svg width="118" height="29" viewBox="0 0 118 29" fill="none" xmlns="http://www.w3.org/2000/svg">
<g clip-path="url(#clip0_36_1064)">
<path d="M31.2475 10.7808H43.0942V12.9346H38.4361V25.0424H35.8747V12.9346H31.2372V10.7808H31.2475ZM42.5881 14.7161H44.7777V16.7089H44.819C44.8913 16.4271 45.0256 16.1553 45.2218 15.8936C45.4181 15.6319 45.6556 15.3803 45.9345 15.169C46.2134 14.9475 46.5232 14.7764 46.8641 14.6355C47.2049 14.5047 47.5561 14.4342 47.9072 14.4342C48.1758 14.4342 48.372 14.4443 48.4753 14.4544C48.5786 14.4644 48.6819 14.4846 48.7955 14.4946V16.6887C48.6302 16.6585 48.465 16.6384 48.2894 16.6183C48.1138 16.5982 47.9485 16.5881 47.7833 16.5881C47.3908 16.5881 47.019 16.6686 46.6678 16.8196C46.3167 16.9706 46.0171 17.202 45.7589 17.4939C45.5007 17.7959 45.2941 18.1582 45.1392 18.601C44.9843 19.0439 44.912 19.5471 44.912 20.1208V25.0324H42.5778V14.7161H42.5881ZM59.5267 25.0424H57.2338V23.6032H57.1925C56.9033 24.1266 56.4798 24.5392 55.9117 24.8512C55.3437 25.1632 54.7653 25.3243 54.1766 25.3243C52.7822 25.3243 51.77 24.9921 51.1503 24.3178C50.5306 23.6435 50.2208 22.6269 50.2208 21.2682V14.7161H52.555V21.0468C52.555 21.9526 52.7306 22.5967 53.0921 22.9691C53.4432 23.3415 53.9493 23.5327 54.5897 23.5327C55.0855 23.5327 55.4883 23.4623 55.8188 23.3113C56.1493 23.1603 56.4178 22.9691 56.6141 22.7175C56.8206 22.4759 56.9652 22.174 57.0582 21.8318C57.1511 21.4896 57.1925 21.1172 57.1925 20.7146V14.7261H59.5267V25.0424ZM63.5031 21.7312C63.5754 22.3954 63.8336 22.8584 64.2777 23.1302C64.7322 23.3918 65.2692 23.5327 65.8993 23.5327C66.1162 23.5327 66.3641 23.5126 66.6429 23.4824C66.9218 23.4522 67.1903 23.3818 67.4279 23.2912C67.6758 23.2006 67.872 23.0597 68.0373 22.8785C68.1922 22.6974 68.2645 22.4659 68.2542 22.174C68.2438 21.8821 68.1302 21.6406 67.9236 21.4594C67.7171 21.2682 67.4589 21.1273 67.1387 21.0065C66.8185 20.8958 66.457 20.7951 66.0439 20.7146C65.6307 20.6341 65.2176 20.5435 64.7941 20.4529C64.3604 20.3624 63.9369 20.2416 63.5341 20.1107C63.1313 19.9799 62.7698 19.7987 62.4496 19.5672C62.1294 19.3458 61.8712 19.0539 61.6853 18.7017C61.4891 18.3494 61.3961 17.9166 61.3961 17.3933C61.3961 16.8296 61.5407 16.3667 61.8196 15.9842C62.0984 15.6018 62.4599 15.2998 62.8834 15.0683C63.3172 14.8368 63.7923 14.6758 64.319 14.5752C64.8458 14.4846 65.3519 14.4342 65.827 14.4342C66.3744 14.4342 66.9011 14.4946 67.3969 14.6053C67.8927 14.7161 68.3471 14.8972 68.7499 15.1589C69.1527 15.4105 69.4832 15.7427 69.7518 16.1452C70.0203 16.5478 70.1856 17.041 70.2579 17.6147H67.8204C67.7067 17.0712 67.4589 16.6988 67.0561 16.5176C66.6533 16.3264 66.1885 16.2358 65.6721 16.2358C65.5068 16.2358 65.3106 16.2459 65.0833 16.2761C64.8561 16.3063 64.6495 16.3566 64.443 16.4271C64.2467 16.4975 64.0815 16.6082 63.9369 16.7491C63.8026 16.89 63.7303 17.0712 63.7303 17.3027C63.7303 17.5845 63.8336 17.8059 64.0298 17.977C64.2261 18.1481 64.4843 18.289 64.8045 18.4098C65.1246 18.5205 65.4861 18.6212 65.8993 18.7017C66.3124 18.7822 66.7359 18.8728 67.1697 18.9634C67.5931 19.0539 68.0063 19.1747 68.4194 19.3056C68.8325 19.4364 69.194 19.6176 69.5142 19.8491C69.8344 20.0805 70.0926 20.3624 70.2888 20.7046C70.4851 21.0468 70.5884 21.4795 70.5884 21.9828C70.5884 22.5967 70.4438 23.11 70.1546 23.5428C69.8654 23.9655 69.4936 24.3178 69.0391 24.5795C68.5847 24.8412 68.0682 25.0424 67.5105 25.1632C66.9528 25.284 66.395 25.3444 65.8476 25.3444C65.1763 25.3444 64.5566 25.2739 63.9885 25.123C63.4205 24.972 62.9247 24.7506 62.5116 24.4587C62.0984 24.1567 61.7679 23.7844 61.5304 23.3415C61.2928 22.8987 61.1689 22.3652 61.1482 21.7513H63.5031V21.7312ZM71.2081 14.7161H72.9742V11.6161H75.3084V14.7161H77.4154V16.417H75.3084V21.9325C75.3084 22.174 75.3188 22.3753 75.3394 22.5565C75.3601 22.7276 75.4117 22.8785 75.484 22.9993C75.5563 23.1201 75.6699 23.2107 75.8249 23.2711C75.9798 23.3314 76.176 23.3616 76.4446 23.3616C76.6098 23.3616 76.7751 23.3616 76.9403 23.3516C77.1056 23.3415 77.2708 23.3214 77.4361 23.2811V25.0424C77.1779 25.0726 76.9197 25.0928 76.6821 25.123C76.4342 25.1532 76.1864 25.1632 75.9281 25.1632C75.3084 25.1632 74.8127 25.1028 74.4409 24.9921C74.069 24.8814 73.7695 24.7103 73.563 24.4889C73.3461 24.2675 73.2118 23.9957 73.1292 23.6636C73.0569 23.3314 73.0052 22.949 72.9949 22.5263V16.4371H71.2287V14.7161H71.2081ZM79.068 14.7161H81.2783V16.1151H81.3196C81.6501 15.5112 82.1045 15.0885 82.6932 14.8268C83.282 14.5651 83.912 14.4342 84.604 14.4342C85.4406 14.4342 86.1636 14.5752 86.7833 14.867C87.403 15.1488 87.9194 15.5414 88.3326 16.0446C88.7457 16.5478 89.0452 17.1316 89.2518 17.7959C89.4583 18.4601 89.5616 19.1747 89.5616 19.9296C89.5616 20.624 89.4687 21.2984 89.2828 21.9425C89.0968 22.5967 88.818 23.1704 88.4462 23.6736C88.0743 24.1769 87.5992 24.5694 87.0208 24.8713C86.4424 25.1733 85.7711 25.3243 84.9861 25.3243C84.6453 25.3243 84.3045 25.2941 83.9636 25.2337C83.6228 25.1733 83.2923 25.0726 82.9824 24.9418C82.6726 24.811 82.3731 24.6399 82.1149 24.4285C81.8463 24.2171 81.6294 23.9756 81.4435 23.7038H81.4022V28.857H79.068V14.7161ZM87.2274 19.8893C87.2274 19.4263 87.1654 18.9734 87.0415 18.5306C86.9176 18.0877 86.7316 17.7053 86.4838 17.3631C86.2359 17.0209 85.926 16.7491 85.5645 16.5478C85.1927 16.3465 84.7692 16.2358 84.2941 16.2358C83.3129 16.2358 82.5693 16.568 82.0735 17.2322C81.5778 17.8965 81.3299 18.7822 81.3299 19.8893C81.3299 20.4127 81.3919 20.8958 81.5261 21.3386C81.6604 21.7815 81.8463 22.1639 82.1149 22.486C82.3731 22.8081 82.6829 23.0597 83.0444 23.2409C83.4059 23.4321 83.8294 23.5227 84.3045 23.5227C84.8416 23.5227 85.2857 23.412 85.6575 23.2006C86.0293 22.9892 86.3288 22.7074 86.5664 22.3753C86.8039 22.0331 86.9795 21.6506 87.0828 21.2179C87.1758 20.7851 87.2274 20.3422 87.2274 19.8893ZM91.3484 10.7808H93.6826V12.9346H91.3484V10.7808ZM91.3484 14.7161H93.6826V25.0424H91.3484V14.7161ZM95.769 10.7808H98.1032V25.0424H95.769V10.7808ZM105.261 25.3243C104.414 25.3243 103.66 25.1833 102.999 24.9116C102.338 24.6399 101.78 24.2574 101.315 23.7844C100.861 23.3013 100.51 22.7276 100.272 22.0633C100.035 21.399 99.9107 20.6643 99.9107 19.8692C99.9107 19.0841 100.035 18.3595 100.272 17.6952C100.51 17.0309 100.861 16.4573 101.315 15.9741C101.77 15.491 102.338 15.1186 102.999 14.8469C103.66 14.5752 104.414 14.4342 105.261 14.4342C106.108 14.4342 106.862 14.5752 107.523 14.8469C108.184 15.1186 108.741 15.5011 109.206 15.9741C109.661 16.4573 110.012 17.0309 110.249 17.6952C110.487 18.3595 110.611 19.0841 110.611 19.8692C110.611 20.6643 110.487 21.399 110.249 22.0633C110.012 22.7276 109.661 23.3013 109.206 23.7844C108.752 24.2675 108.184 24.6399 107.523 24.9116C106.862 25.1833 106.108 25.3243 105.261 25.3243ZM105.261 23.5227C105.777 23.5227 106.232 23.412 106.614 23.2006C106.996 22.9892 107.306 22.7074 107.554 22.3652C107.802 22.023 107.977 21.6305 108.101 21.1977C108.215 20.7649 108.277 20.3221 108.277 19.8692C108.277 19.4263 108.215 18.9936 108.101 18.5507C107.987 18.1079 107.802 17.7254 107.554 17.3832C107.306 17.041 106.996 16.7693 106.614 16.5579C106.232 16.3465 105.777 16.2358 105.261 16.2358C104.744 16.2358 104.29 16.3465 103.908 16.5579C103.526 16.7693 103.216 17.0511 102.968 17.3832C102.72 17.7254 102.544 18.1079 102.42 18.5507C102.307 18.9936 102.245 19.4263 102.245 19.8692C102.245 20.3221 102.307 20.7649 102.42 21.1977C102.534 21.6305 102.72 22.023 102.968 22.3652C103.216 22.7074 103.526 22.9892 103.908 23.2006C104.29 23.422 104.744 23.5227 105.261 23.5227ZM111.293 14.7161H113.059V11.6161H115.393V14.7161H117.5V16.417H115.393V21.9325C115.393 22.174 115.403 22.3753 115.424 22.5565C115.445 22.7276 115.496 22.8785 115.569 22.9993C115.641 23.1201 115.754 23.2107 115.909 23.2711C116.064 23.3314 116.261 23.3616 116.529 23.3616C116.694 23.3616 116.86 23.3616 117.025 23.3516C117.19 23.3415 117.355 23.3214 117.521 23.2811V25.0424C117.262 25.0726 117.004 25.0928 116.767 25.123C116.519 25.1532 116.271 25.1632 116.013 25.1632C115.393 25.1632 114.897 25.1028 114.525 24.9921C114.154 24.8814 113.854 24.7103 113.647 24.4889C113.431 24.2675 113.296 23.9957 113.214 23.6636C113.141 23.3314 113.09 22.949 113.079 22.5263V16.4371H111.313V14.7161H111.293Z" fill="white"/>
<path d="M28.5209 10.7807H17.8207L14.5156 0.856934L11.2002 10.7807L0.5 10.7707L9.16552 16.9101L5.85011 26.8239L14.5156 20.6945L23.1708 26.8239L19.8657 16.9101L28.5209 10.7807Z" fill="#00C48C"/>
<path d="M20.6094 19.1546L19.8658 16.9102L14.5157 20.6945L20.6094 19.1546Z" fill="#00E3A2"/>
</g>
<defs>
<clipPath id="clip0_36_1064">
<rect width="117" height="28" fill="white" transform="translate(0.5 0.856934)"/>
</clipPath>
</defs>
</svg>
