<svg width="24" height="24" viewBox="0 0 24 24" fill="none" xmlns="http://www.w3.org/2000/svg">
<path d="M12.003 0H11.997C5.3805 0 0 5.382 0 12C0 14.625 0.846 17.058 2.2845 19.0335L0.789 23.4915L5.4015 22.017C7.299 23.274 9.5625 24 12.003 24C18.6195 24 24 18.6165 24 12C24 5.3835 18.6195 0 12.003 0Z" fill="#4CAF50"/>
<path d="M18.573 16.8418C18.2835 17.6593 17.1345 18.3373 16.218 18.5353C15.591 18.6688 14.772 18.7753 12.015 17.6323C8.48848 16.1713 6.21748 12.5878 6.04048 12.3553C5.87098 12.1228 4.61548 10.4578 4.61548 8.73576C4.61548 7.01377 5.48998 6.17527 5.84248 5.81527C6.13198 5.51977 6.61048 5.38477 7.06948 5.38477C7.21798 5.38477 7.35148 5.39227 7.47148 5.39827C7.82398 5.41327 8.00098 5.43427 8.23348 5.99077C8.52298 6.68827 9.22798 8.41026 9.31198 8.58727C9.39748 8.76426 9.48298 9.00426 9.36298 9.23676C9.25048 9.47676 9.15148 9.58326 8.97448 9.78726C8.79748 9.99126 8.62948 10.1473 8.45248 10.3663C8.29048 10.5568 8.10748 10.7608 8.31148 11.1133C8.51548 11.4583 9.22048 12.6088 10.2585 13.5328C11.598 14.7253 12.684 15.1063 13.0725 15.2683C13.362 15.3883 13.707 15.3598 13.9185 15.1348C14.187 14.8453 14.5185 14.3653 14.856 13.8928C15.096 13.5538 15.399 13.5118 15.717 13.6318C16.041 13.7443 17.7555 14.5918 18.108 14.7673C18.4605 14.9443 18.693 15.0283 18.7785 15.1768C18.8625 15.3253 18.8625 16.0228 18.573 16.8418Z" fill="white"/>
</svg>
