<svg width="58" height="58" viewBox="0 0 58 58" fill="none" xmlns="http://www.w3.org/2000/svg">
<g clip-path="url(#clip0_765_5819)">
<path d="M8.69946 13.5334H50.2661V51.2899H8.69946V13.5334Z" fill="#587AA1"/>
<path d="M5.79895 18.5752H11.599V47.159H5.79895V18.5752Z" fill="#F4FBFF"/>
<path d="M8.91541 18.5752H11.5995V47.159H8.91541V18.5752Z" fill="#BFEBFF"/>
<path d="M11.599 22.3254H5.79895V24.076H11.599V22.3254Z" fill="#85D9FF"/>
<path d="M11.599 41.6589H5.79895V43.4094H11.599V41.6589Z" fill="#85D9FF"/>
<path d="M12.566 50.8505H4.83276V47.3066C4.83276 46.8062 5.23854 46.4004 5.73901 46.4004H11.6599C12.1604 46.4004 12.5661 46.8062 12.5661 47.3066V50.8505H12.566Z" fill="#ABD5ED"/>
<path d="M4.83276 14.8833H12.5661V18.4272C12.5661 18.9277 12.1604 19.3334 11.6599 19.3334H5.73901C5.23854 19.3334 4.83276 18.9277 4.83276 18.4272V14.8833Z" fill="#ABD5ED"/>
<path d="M9.88277 14.8833V18.3999C9.88277 18.9155 9.46476 19.3334 8.94922 19.3334H11.6333C12.149 19.3334 12.567 18.9154 12.567 18.3999V14.8833H9.88277Z" fill="#97BEDB"/>
<path d="M11.6333 46.4004H8.94922C9.46488 46.4004 9.88277 46.8184 9.88277 47.3341V50.8506H12.5669V47.3341C12.5669 46.8184 12.1488 46.4004 11.6333 46.4004Z" fill="#97BEDB"/>
<path d="M55.7611 10.656L29.7204 0.140345C29.2578 -0.0464561 28.742 -0.0464561 28.2794 0.140345L2.23869 10.656C1.74285 10.8563 1.8848 11.6002 2.4188 11.6002H2.89991L28.9999 12.5747L55.0999 11.6002H55.581C56.115 11.6002 56.257 10.8562 55.7611 10.656Z" fill="#F4FBFF"/>
<path d="M47.7726 11.6006L28.9998 4.01978L10.2269 11.6006V12.7014H47.7726V11.6006Z" fill="#ABD5ED"/>
<path d="M28.9995 4.01978L27.6421 4.56794L45.0575 11.6006V12.7014H47.7724V11.6006L28.9995 4.01978Z" fill="#97BEDB"/>
<path d="M55.7621 10.656L29.7213 0.140345C29.2588 -0.0464561 28.7429 -0.0464561 28.2804 0.140345L27.6588 0.391376L53.078 10.6561C53.5738 10.8564 53.4319 11.6003 52.8979 11.6003H52.4168L27.6588 12.5247L29.0009 12.5747L55.1009 11.6002H55.582C56.116 11.6002 56.2579 10.8562 55.7621 10.656Z" fill="#BFEBFF"/>
<path d="M47.3665 18.5752H53.1665V47.159H47.3665V18.5752Z" fill="#F4FBFF"/>
<path d="M50.4829 18.5752H53.167V47.159H50.4829V18.5752Z" fill="#BFEBFF"/>
<path d="M53.1665 22.3254H47.3666H47.3665V24.076H47.3666H53.1665V22.3254Z" fill="#85D9FF"/>
<path d="M53.1665 41.6589H47.3666H47.3665V43.4094H47.3666H53.1665V41.6589Z" fill="#85D9FF"/>
<path d="M54.1336 50.8505H46.4003V47.3066C46.4003 46.8062 46.806 46.4004 47.3065 46.4004H53.2274C53.7279 46.4004 54.1336 46.8062 54.1336 47.3066V50.8505Z" fill="#ABD5ED"/>
<path d="M46.4003 14.8833H54.1336V18.4272C54.1336 18.9277 53.7279 19.3334 53.2274 19.3334H47.3065C46.806 19.3334 46.4003 18.9277 46.4003 18.4272V14.8833Z" fill="#ABD5ED"/>
<path d="M51.4499 14.8833V18.3999C51.4499 18.9155 51.0319 19.3334 50.5164 19.3334H53.2004C53.7161 19.3334 54.134 18.9154 54.134 18.3999V14.8833H51.4499Z" fill="#97BEDB"/>
<path d="M53.2008 46.4004H50.5167C51.0323 46.4004 51.4503 46.8184 51.4503 47.3341V50.8506H54.1344V47.3341C54.1345 46.8184 53.7165 46.4004 53.2008 46.4004Z" fill="#97BEDB"/>
<path d="M2.90027 11.6006H55.1003V14.561C55.1003 15.0614 54.6945 15.4672 54.194 15.4672H3.80652C3.30604 15.4672 2.90027 15.0614 2.90027 14.561V11.6006Z" fill="#F4FBFF"/>
<path d="M55.1003 55.0822H2.90027V51.1726C2.90027 50.6721 3.30604 50.2664 3.80652 50.2664H54.194C54.6945 50.2664 55.1003 50.6721 55.1003 51.1726V55.0822Z" fill="#F4FBFF"/>
<path d="M54.1662 50.2671H51.4646C51.9803 50.2671 52.3981 50.6851 52.3981 51.2008V55.083H55.0998V51.2008C55.0998 50.6851 54.6818 50.2671 54.1662 50.2671Z" fill="#BFEBFF"/>
<path d="M57.0938 57.9999H0.90625C0.405773 57.9999 0 57.5942 0 57.0937V55.0396C0 54.5391 0.405773 54.1333 0.90625 54.1333H57.0938C57.5942 54.1333 58 54.5391 58 55.0396V57.0937C58 57.5942 57.5942 57.9999 57.0938 57.9999Z" fill="#ABD5ED"/>
<path d="M57.0671 54.1333H54.3831C54.8986 54.1333 55.3166 54.5513 55.3166 55.067V57.0664C55.3166 57.582 54.8986 57.9999 54.3831 57.9999H57.0671C57.5828 57.9999 58.0007 57.5819 58.0007 57.0664V55.067C58.0007 54.5513 57.5827 54.1333 57.0671 54.1333Z" fill="#97BEDB"/>
<path d="M52.4222 11.6006V14.5337C52.4222 15.0493 52.0042 15.4672 51.4886 15.4672H54.1659C54.6816 15.4672 55.0995 15.0492 55.0995 14.5337V11.6006H52.4222Z" fill="#BFEBFF"/>
<path d="M28.9997 46.4C36.4739 46.4 42.533 40.3409 42.533 32.8666C42.533 25.3923 36.4739 19.3333 28.9997 19.3333C21.5254 19.3333 15.4663 25.3923 15.4663 32.8666C15.4663 40.3409 21.5254 46.4 28.9997 46.4Z" fill="#FFCC4A"/>
<path d="M29.0006 19.3335C28.5477 19.3335 28.1 19.3562 27.6586 19.3997C34.5028 20.0734 39.8499 25.8455 39.8499 32.8669C39.8499 39.8883 34.5028 45.6602 27.6586 46.3341C28.1 46.3776 28.5477 46.4002 29.0006 46.4002C36.4749 46.4002 42.534 40.3412 42.534 32.8669C42.534 25.3926 36.4749 19.3335 29.0006 19.3335Z" fill="#FFB54C"/>
<path d="M28.9985 19.3335C28.7043 19.3335 28.4127 19.3439 28.1233 19.3625V23.2001C28.1233 23.6835 28.5151 24.0753 28.9985 24.0753C29.4819 24.0753 29.8737 23.6835 29.8737 23.2001V19.3624C29.5843 19.3439 29.2926 19.3335 28.9985 19.3335Z" fill="#FFE278"/>
<path d="M18.8318 23.9357L21.5454 26.6494C21.7164 26.8203 21.9403 26.9057 22.1643 26.9057C22.3882 26.9057 22.6123 26.8202 22.7831 26.6494C23.125 26.3076 23.125 25.7534 22.7831 25.4116L20.0695 22.698C19.6309 23.0835 19.2174 23.497 18.8318 23.9357Z" fill="#FFE278"/>
<path d="M19.3322 31.9922H15.4945C15.476 32.2816 15.4656 32.5733 15.4656 32.8674C15.4656 33.1615 15.476 33.4532 15.4945 33.7427H19.3322C19.8156 33.7427 20.2074 33.3509 20.2074 32.8675C20.2074 32.384 19.8156 31.9922 19.3322 31.9922Z" fill="#FFE278"/>
<path d="M21.5454 39.0825L18.8318 41.7962C19.2174 42.2349 19.6309 42.6484 20.0696 43.0339L22.7833 40.3202C23.1251 39.9785 23.1251 39.4243 22.7833 39.0824C22.4414 38.7407 21.8872 38.7407 21.5454 39.0825Z" fill="#FFE278"/>
<path d="M28.9985 41.658C28.5151 41.658 28.1233 42.0498 28.1233 42.5332V46.3709C28.4127 46.3894 28.7044 46.3998 28.9985 46.3998C29.2926 46.3998 29.5843 46.3894 29.8737 46.3709V42.5332C29.8737 42.0498 29.4819 41.658 28.9985 41.658Z" fill="#FFE278"/>
<path d="M39.1674 41.7961L36.4537 39.0825C36.1119 38.7407 35.5578 38.7407 35.2159 39.0825C34.874 39.4243 34.874 39.9784 35.2159 40.3203L37.9295 43.034C38.3683 42.6484 38.7818 42.2349 39.1674 41.7961Z" fill="#FFE278"/>
<path d="M37.9295 22.6987L35.2159 25.4124C34.874 25.7542 34.874 26.3083 35.2159 26.6501C35.3868 26.821 35.6108 26.9064 35.8347 26.9064C36.0587 26.9064 36.2828 26.8209 36.4536 26.6501L39.1673 23.9364C38.7818 23.4978 38.3683 23.0843 37.9295 22.6987Z" fill="#FFE278"/>
<path d="M42.5039 31.9922H38.6661C38.1827 31.9922 37.7909 32.384 37.7909 32.8674C37.7909 33.3508 38.1827 33.7426 38.6661 33.7426H42.5039C42.5223 33.4532 42.5327 33.1615 42.5327 32.8673C42.5329 32.5733 42.5223 32.2816 42.5039 31.9922Z" fill="#FFE278"/>
<path d="M28.9989 42.5325C34.3376 42.5325 38.6655 38.2046 38.6655 32.8658C38.6655 27.5271 34.3376 23.1992 28.9989 23.1992C23.6602 23.1992 19.3323 27.5271 19.3323 32.8658C19.3323 38.2046 23.6602 42.5325 28.9989 42.5325Z" fill="#FFB54C"/>
<path d="M28.9993 31.9914C28.2026 31.9914 27.5545 31.3433 27.5545 30.5466C27.5545 29.75 28.2026 29.1019 28.9993 29.1019C29.7959 29.1019 30.4441 29.75 30.4441 30.5466C30.4441 31.03 30.8359 31.4218 31.3193 31.4218C31.8027 31.4218 32.1945 31.03 32.1945 30.5466C32.1945 29.0882 31.212 27.8558 29.8745 27.4742V27.0666C29.8745 26.5832 29.4827 26.1914 28.9993 26.1914C28.5159 26.1914 28.1241 26.5832 28.1241 27.0666V27.4742C26.7866 27.8558 25.8041 29.0882 25.8041 30.5466C25.8041 32.3085 27.2374 33.7419 28.9994 33.7419C29.796 33.7419 30.4442 34.39 30.4442 35.1866C30.4442 35.9832 29.7961 36.6314 28.9994 36.6314C28.2027 36.6314 27.5546 35.9833 27.5546 35.1866C27.5546 34.7032 27.1628 34.3114 26.6794 34.3114C26.196 34.3114 25.8042 34.7032 25.8042 35.1866C25.8042 36.645 26.7867 37.8774 28.1242 38.259V38.6666C28.1242 39.15 28.516 39.5418 28.9994 39.5418C29.4828 39.5418 29.8746 39.15 29.8746 38.6666V38.259C31.2121 37.8774 32.1946 36.645 32.1946 35.1866C32.1945 33.4249 30.7611 31.9914 28.9993 31.9914Z" fill="#FFE278"/>
<path d="M29.0006 23.1992C28.545 23.1992 28.0974 23.2331 27.6586 23.294C32.3618 23.9477 35.9832 27.9827 35.9832 32.8658C35.9832 37.7489 32.3618 41.784 27.6586 42.4376C28.0974 42.4986 28.545 42.5325 29.0006 42.5325C34.3393 42.5325 38.6673 38.2046 38.6673 32.8658C38.6673 27.5271 34.3393 23.1992 29.0006 23.1992Z" fill="#FF9959"/>
</g>
<defs>
<clipPath id="clip0_765_5819">
<rect width="58" height="58" fill="white"/>
</clipPath>
</defs>
</svg>
